<?xml version="1.0" encoding="utf-8"?>
<!-- Generator: Adobe Illustrator 28.1.0, SVG Export Plug-In . SVG Version: 6.00 Build 0)  -->
<svg version="1.1" id="Layer_1" xmlns="http://www.w3.org/2000/svg" xmlns:xlink="http://www.w3.org/1999/xlink" x="0px" y="0px"
	 viewBox="0 0 1200 1200" style="enable-background:new 0 0 1200 1200;" xml:space="preserve">
<style type="text/css">
	.st0{fill:#C5221A;}
	.st1{fill:#E56C0E;}
	.st2{fill:#FFFFFF;}
	.st3{fill:none;}
	.st4{font-family:'Helvetica-Bold';}
	.st5{font-size:53.767px;}
	.st6{fill:#EB6A09;}
	.st7{fill:#9AB3D5;}
</style>
<g>
	<path d="M921.11,289.49l-25.31-32.15C723.45,313.43,600,203.31,600,203.31s-123.45,110.11-295.81,54.03l-25.31,32.15
		c0,0,75.23,88.23,6.16,240.06c0,0,28.73,63.61,32.83,183.98C323.35,775.09,312.4,877,600,996.69
		C887.6,877,876.65,775.09,882.13,713.53c4.1-120.37,32.83-183.98,32.83-183.98C845.88,377.72,921.11,289.49,921.11,289.49z"/>
	<path class="st0" d="M882.13,295.3C717.98,329.16,600,252.22,600,252.22s-117.98,76.94-282.13,43.09c0,0,30.78,101.57,23.6,234.93
		c-7.18,133.37-40.01,264.69,141.58,352.91C558.96,918.03,600,940.6,600,940.6s41.04-22.57,116.95-57.45
		c181.59-88.23,148.76-219.55,141.58-352.91S882.13,295.3,882.13,295.3z"/>
	<path d="M836.76,531.41c-4.92-91.42,7.33-167.79,16.24-209.18H600H347c8.91,41.39,21.16,117.76,16.24,209.18
		c-0.79,14.75-1.9,29.56-2.98,43.89c-2.4,32.03-4.73,63.08-3.66,92.69c1.73,48.01,18.88,94.29,49.69,131.15
		c34.83,41.67,95.85,85.89,193.7,85.89c97.86,0,158.88-44.22,193.7-85.89c30.81-36.86,47.96-83.14,49.69-131.15
		c1.07-29.61-1.26-60.66-3.66-92.69C838.67,560.97,837.56,546.16,836.76,531.41z"/>
	<path class="st1" d="M600,879.22c-98.53,0-157.29-45.57-189.24-83.8c-29.47-35.27-46.64-80.59-48.34-127.63
		c-1.06-29.29,1.23-59.77,3.64-92.05c1.08-14.38,2.19-29.21,2.98-44.01c4.76-88.35-6.63-163.17-14.89-203.68h491.69
		c-8.26,40.51-19.65,115.32-14.89,203.68c0.8,14.79,1.91,29.61,2.98,43.95c2.42,32.36,4.71,62.83,3.65,92.11
		c-1.7,47.04-18.87,92.36-48.34,127.63C757.29,833.65,698.52,879.22,600,879.22z"/>
	<path d="M600,866.14c-93.47,0-149.04-43.02-179.21-79.11c-27.62-33.05-43.71-75.56-45.31-119.72c-1.03-28.56,1.22-58.68,3.61-90.57
		c1.08-14.43,2.2-29.32,3-44.31c4.32-80.19-4.62-149.73-12.12-191.3h460.03c-7.5,41.56-16.44,111.11-12.12,191.3
		c0.8,14.84,1.91,29.65,2.98,43.97l0.02,0.26c2.39,31.95,4.65,62.11,3.62,90.66c-1.6,44.15-17.68,86.67-45.31,119.72
		C749.04,823.12,693.47,866.14,600,866.14z"/>
	<path class="st2" d="M600,860.33c-91.22,0-145.38-41.89-174.74-77.03c-26.8-32.06-42.41-73.33-43.96-116.2
		c-1.02-28.24,1.22-58.21,3.6-89.93c1.09-14.51,2.2-29.42,3.01-44.43c4.07-75.54-3.44-141.67-11-185.8h446.18
		c-7.56,44.12-15.07,110.25-11,185.8c0.8,14.88,1.91,29.7,2.98,44.03l0.03,0.33c2.38,31.76,4.62,61.78,3.61,90
		c-1.55,42.87-17.16,84.13-43.96,116.2C745.38,818.44,691.22,860.33,600,860.33z"/>
	<g>
		<path id="SVGID_x5F_1_x5F_" class="st3" d="M600,847.25c86.17,0,137.13-39.34,164.71-72.34c24.94-29.85,39.48-68.3,40.92-108.28
			c0.99-27.52-1.23-57.17-3.58-88.53l-0.05-0.6c-1.07-14.32-2.18-29.13-2.98-44.05c-3.72-69.05,2.15-130.31,8.7-173.42H392.27
			c6.55,43.12,12.42,104.38,8.7,173.43c-0.82,15.14-1.94,30.15-3.03,44.7c-2.35,31.34-4.57,60.95-3.58,88.48
			c1.44,39.98,15.98,78.44,40.92,108.28C462.87,807.91,513.83,847.25,600,847.25z"/>
		<text>		<textPath  xlink:href="#SVGID_x5F_1_x5F_" startOffset="4355.6797%">
<tspan  class="st4" style="font-size:57.2639px; letter-spacing:-90;">BALLKLUBB</tspan>		</textPath>
</text>
	</g>
	<text transform="matrix(1 0 0 1 424.646 393.7656)"><tspan x="0" y="0" class="st4 st5">FIKSDAL     &amp;</tspan><tspan x="122.47" y="42.56" class="st4 st5">REKDAL</tspan></text>
	<g>
		<circle cx="516.93" cy="658.6" r="83.07"/>
		<circle class="st6" cx="516.93" cy="658.6" r="78.08"/>
		<circle cx="683.07" cy="652.29" r="83.07"/>
		<circle class="st7" cx="683.07" cy="652.29" r="78.08"/>
		<g>
			<circle cx="587.91" cy="718.02" r="83.07"/>
			<circle class="st0" cx="587.91" cy="718.02" r="78.08"/>
		</g>
	</g>
	<g>
		<g>
			<path d="M482.62,522.34v-6.27c2.9-0.13,4.93-0.32,6.09-0.58c1.85-0.41,3.35-1.23,4.51-2.46c0.79-0.84,1.4-1.96,1.8-3.36
				c0.24-0.84,0.35-1.46,0.35-1.87h7.69v46.84h-9.43v-32.3H482.62z"/>
			<path d="M513.86,512.09c2.9-3.11,6.66-4.67,11.29-4.67c7.13,0,12.02,3.16,14.67,9.46c1.51,3.57,2.26,8.28,2.26,14.12
				c0,5.66-0.72,10.39-2.16,14.18c-2.76,7.21-7.82,10.82-15.18,10.82c-3.51,0-6.67-1.04-9.46-3.12c-2.8-2.08-4.4-5.11-4.81-9.09
				h9.17c0.22,1.38,0.8,2.5,1.74,3.36c0.95,0.86,2.21,1.29,3.78,1.29c3.04,0,5.17-1.68,6.4-5.04c0.67-1.85,1.09-4.55,1.26-8.11
				c-0.84,1.06-1.73,1.86-2.68,2.42c-1.72,1.03-3.84,1.55-6.36,1.55c-3.73,0-7.03-1.29-9.92-3.86c-2.89-2.57-4.33-6.28-4.33-11.13
				C509.52,519.26,510.97,515.2,513.86,512.09z M529.35,530.68c2.09-1.33,3.13-3.65,3.13-6.94c0-2.65-0.62-4.75-1.86-6.3
				c-1.24-1.55-2.94-2.33-5.09-2.33c-1.57,0-2.92,0.44-4.04,1.32c-1.77,1.38-2.65,3.71-2.65,7.01c0,2.78,0.57,4.86,1.7,6.25
				c1.13,1.39,2.87,2.08,5.22,2.08C527.04,531.77,528.23,531.41,529.35,530.68z"/>
		</g>
		<g>
			<path d="M699.76,514.43c-1.38,1.36-3.3,3.77-5.76,7.25c-2.46,3.48-4.52,7.07-6.18,10.77c-1.32,2.91-2.5,6.46-3.56,10.66
				c-1.06,4.2-1.59,7.65-1.59,10.34h-9.56c0.28-8.4,3.04-17.13,8.28-26.2c3.38-5.62,6.22-9.54,8.5-11.76h-23.34l0.13-8.27h33.08
				V514.43z"/>
			<path d="M700.71,510.9c2.9-3.11,6.66-4.67,11.29-4.67c7.13,0,12.02,3.16,14.67,9.46c1.51,3.57,2.26,8.28,2.26,14.12
				c0,5.66-0.72,10.39-2.16,14.18c-2.76,7.21-7.82,10.82-15.18,10.82c-3.51,0-6.67-1.04-9.46-3.12c-2.8-2.08-4.4-5.11-4.81-9.09
				h9.17c0.22,1.38,0.8,2.5,1.74,3.36c0.95,0.86,2.21,1.29,3.78,1.29c3.04,0,5.17-1.68,6.4-5.04c0.67-1.85,1.09-4.55,1.26-8.11
				c-0.84,1.06-1.73,1.86-2.68,2.42c-1.72,1.03-3.84,1.55-6.36,1.55c-3.73,0-7.03-1.29-9.92-3.86c-2.89-2.57-4.33-6.28-4.33-11.13
				C696.36,518.07,697.81,514.01,700.71,510.9z M716.2,529.49c2.09-1.33,3.13-3.65,3.13-6.94c0-2.65-0.62-4.75-1.86-6.3
				c-1.24-1.55-2.94-2.33-5.09-2.33c-1.57,0-2.92,0.44-4.04,1.32c-1.77,1.38-2.65,3.71-2.65,7.01c0,2.78,0.57,4.86,1.7,6.25
				c1.13,1.39,2.87,2.08,5.22,2.08C713.88,530.59,715.08,530.22,716.2,529.49z"/>
		</g>
		<g>
			<path d="M600,444.14H433.34c0,0,101.27,42.64,166.66,129.7c65.38-87.06,166.66-129.7,166.66-129.7H600z"/>
			<path class="st7" d="M459.61,450.18c19.12,10.11,47.47,26.86,76.92,50.48l46.56-50.48H459.61z"/>
			<path class="st2" d="M590.53,450.18l-49.75,53.94c11.66,9.59,23.43,20.25,34.81,32l79.26-85.94H590.53z"/>
		</g>
	</g>
</g>
</svg>
